<svg width="17" height="17" viewBox="0 0 17 17" fill="none" xmlns="http://www.w3.org/2000/svg">
<g clip-path="url(#clip0_493_1136)">
<path d="M11.269 8.58713L17.0002 12.2103V4.811L11.269 8.58713Z" fill="#216079"/>
<path d="M0 4.811V12.2103L5.73112 8.58713L0 4.811Z" fill="#216079"/>
<path d="M15.9374 2.65625H1.06236C0.532176 2.65625 0.111426 3.0515 0.0317383 3.56044L8.49986 9.13963L16.968 3.56044C16.8883 3.0515 16.4675 2.65625 15.9374 2.65625Z" fill="#216079"/>
<path d="M10.2953 9.22888L8.79188 10.2191C8.70263 10.2776 8.60169 10.3063 8.49969 10.3063C8.39769 10.3063 8.29675 10.2776 8.2075 10.2191L6.70407 9.22781L0.0336914 13.447C0.115504 13.9517 0.534129 14.3438 1.06219 14.3438H15.9372C16.4653 14.3438 16.8839 13.9517 16.9657 13.447L10.2953 9.22888Z" fill="#216079"/>
</g>
<defs>
<clipPath id="clip0_493_1136">
<rect width="17" height="17" rx="8.5" fill="white"/>
</clipPath>
</defs>
</svg>
