<svg width="16" height="16" viewBox="0 0 16 16" fill="none" xmlns="http://www.w3.org/2000/svg">
<g clip-path="url(#clip0_493_1124)">
<path d="M8.00002 0.400002C3.58882 0.400002 2.15004e-05 3.62987 2.15004e-05 7.6C2.15004e-05 8.98774 0.438955 10.332 1.27149 11.4944C1.11389 13.2376 0.691488 14.5317 0.0781548 15.1448C-0.00291183 15.2259 -0.0231785 15.3499 0.0280215 15.4523C0.0733548 15.5437 0.166688 15.6 0.266688 15.6C0.278955 15.6 0.291221 15.5992 0.303755 15.5973C0.411755 15.5821 2.92055 15.2211 4.73522 14.1736C5.76562 14.5893 6.86322 14.8 8.00002 14.8C12.4112 14.8 16 11.5701 16 7.6C16 3.62987 12.4112 0.400002 8.00002 0.400002ZM4.26669 8.66667C3.67842 8.66667 3.20002 8.18827 3.20002 7.6C3.20002 7.01173 3.67842 6.53334 4.26669 6.53334C4.85495 6.53334 5.33335 7.01173 5.33335 7.6C5.33335 8.18827 4.85495 8.66667 4.26669 8.66667ZM8.00002 8.66667C7.41175 8.66667 6.93335 8.18827 6.93335 7.6C6.93335 7.01173 7.41175 6.53334 8.00002 6.53334C8.58829 6.53334 9.06669 7.01173 9.06669 7.6C9.06669 8.18827 8.58829 8.66667 8.00002 8.66667ZM11.7334 8.66667C11.1451 8.66667 10.6667 8.18827 10.6667 7.6C10.6667 7.01173 11.1451 6.53334 11.7334 6.53334C12.3216 6.53334 12.8 7.01173 12.8 7.6C12.8 8.18827 12.3216 8.66667 11.7334 8.66667Z" fill="#216079"/>
</g>
<defs>
<clipPath id="clip0_493_1124">
<rect width="16" height="16" rx="8" fill="white"/>
</clipPath>
</defs>
</svg>
