<svg width="16" height="16" viewBox="0 0 16 16" fill="none" xmlns="http://www.w3.org/2000/svg">
<g clip-path="url(#clip0_493_1117)">
<path d="M8.01351 1.1659e-05C3.60023 -0.00744643 0.0165027 3.56417 0.00904458 7.97745C0.0053657 10.1593 0.893948 12.2477 2.46854 13.758C2.47312 13.7625 2.47483 13.7694 2.47938 13.7734C2.5256 13.8179 2.57583 13.8556 2.62265 13.8984C2.75108 14.0125 2.8795 14.1307 3.01479 14.2409C3.08726 14.298 3.16261 14.355 3.23682 14.4075C3.36468 14.5028 3.49254 14.5982 3.62608 14.6861C3.71685 14.7432 3.81046 14.8002 3.90347 14.8573C4.02675 14.9315 4.14949 15.0063 4.27678 15.0742C4.38467 15.1313 4.4948 15.1804 4.6044 15.2323C4.72426 15.2894 4.84242 15.3464 4.96513 15.3978C5.08783 15.4492 5.21114 15.4891 5.33556 15.5337C5.45997 15.5782 5.56729 15.6193 5.68659 15.6558C5.8213 15.6963 5.95943 15.7277 6.09641 15.7614C6.21056 15.7893 6.32129 15.8213 6.43888 15.8442C6.59641 15.8756 6.75624 15.8955 6.91607 15.9172C7.01483 15.9309 7.11128 15.9503 7.21115 15.96C7.47258 15.9857 7.73626 16 8.00224 16C8.26822 16 8.53193 15.9857 8.79333 15.96C8.89323 15.9503 8.98968 15.9309 9.08841 15.9172C9.24824 15.8955 9.40804 15.8756 9.56559 15.8442C9.67974 15.8213 9.79392 15.7871 9.90806 15.7614C10.0451 15.7277 10.1832 15.6963 10.3179 15.6558C10.4372 15.6193 10.5525 15.5748 10.6689 15.5337C10.7854 15.4926 10.9178 15.448 11.0394 15.3978C11.1609 15.3476 11.2802 15.2888 11.4001 15.2323C11.5097 15.1804 11.6198 15.1313 11.7277 15.0742C11.855 15.0063 11.9777 14.9315 12.101 14.8573C12.1941 14.8002 12.2877 14.7483 12.3784 14.6861C12.512 14.5982 12.6398 14.5029 12.7677 14.4075C12.8419 14.3504 12.9172 14.2991 12.9897 14.2409C13.125 14.1324 13.2534 14.0171 13.3818 13.8984C13.4286 13.8556 13.4788 13.8179 13.5251 13.7734C13.5297 13.7694 13.5314 13.7626 13.5359 13.758C15.1049 12.2554 15.9917 10.1769 15.9909 8.00448C15.9984 3.5912 12.4268 0.00746974 8.01351 1.1659e-05ZM13.5788 11.964C13.2125 10.2556 12.0875 8.80721 10.5228 8.02959C11.8019 6.63627 11.7093 4.46985 10.316 3.19077C8.92259 1.91169 6.7562 2.00433 5.47713 3.39765C4.27467 4.70753 4.27467 6.71975 5.47713 8.02959C3.91243 8.80721 2.78743 10.2555 2.42115 11.964C0.228372 8.88894 0.943613 4.61847 4.01872 2.4257C5.18071 1.59711 6.57283 1.1528 8 1.15508C11.7768 1.14906 14.8434 4.2059 14.8494 7.98274C14.8517 9.40991 14.4074 10.802 13.5788 11.964Z" fill="#216079"/>
</g>
<defs>
<clipPath id="clip0_493_1117">
<rect width="16" height="16" rx="8" fill="white"/>
</clipPath>
</defs>
</svg>
