<svg width="64" height="64" viewBox="0 0 64 64" fill="none" xmlns="http://www.w3.org/2000/svg">
<g clip-path="url(#clip0_502_15582)">
<path d="M53.5957 48.0966C53.078 48.0966 52.6582 48.5164 52.6582 49.0341C52.6582 49.5519 53.078 49.9716 53.5957 49.9716H53.6057C54.1235 49.9716 54.5382 49.5519 54.5382 49.0341C54.5382 48.5164 54.1136 48.0966 53.5957 48.0966V48.0966Z" fill="#F37800"/>
<path d="M22.5342 48.0966C22.0164 48.0966 21.5967 48.5164 21.5967 49.0341C21.5967 49.5519 22.0164 49.9716 22.5342 49.9716H22.5442C23.0619 49.9716 23.4767 49.5519 23.4767 49.0341C23.4767 48.5164 23.0521 48.0966 22.5342 48.0966V48.0966Z" fill="#F37800"/>
<path d="M11.8275 47.7765C11.6754 48.3441 11.7775 48.9197 12.1108 49.354C12.4369 49.7789 12.9494 50.0216 13.5149 50.0216H17.3991C17.3902 50.9515 17.6597 51.8236 18.1927 52.5182C18.9414 53.494 20.1027 54.0295 21.459 54.0295C23.883 54.0295 26.2848 52.3192 27.2441 50.0216H48.4613C48.4524 50.9515 48.7218 51.8236 49.2549 52.5182C50.0035 53.494 51.1649 54.0295 52.5211 54.0295C54.9452 54.0295 57.347 52.3192 58.3062 50.0216H58.6052C60.1557 50.0216 61.6889 48.8201 62.1001 47.2855L63.9439 40.4042C64.2397 39.2998 63.9006 38.2337 63.0518 37.627L60.0745 35.4984L60.0314 26.458C60.0245 25.0332 58.9602 23.9985 57.5062 23.9985H50.2871C50.3564 23.5118 50.242 23.0349 49.9559 22.6621C49.6298 22.2371 49.1173 21.9945 48.5518 21.9945H42.0186C41.4733 21.9945 41.0311 22.4366 41.0311 22.982C41.0311 23.5273 41.4733 23.9695 42.0186 23.9695L48.2668 23.9696L41.8152 48.0466H27.6669C27.6758 47.1166 27.4062 46.2444 26.8732 45.5498C26.1245 44.5742 24.9632 44.0385 23.6069 44.0385C21.1829 44.0385 18.7811 45.7488 17.8218 48.0466L13.7998 48.0465L15.6147 41.2733C15.7558 40.7465 15.4433 40.2051 14.9164 40.0639L14.9163 40.0639C14.3905 39.9233 13.8482 40.2353 13.7069 40.7622L13.7501 40.7738L13.7069 40.7622L11.8275 47.7765ZM11.8275 47.7765L11.8758 47.7895M11.8275 47.7765L11.8275 47.7765L11.8758 47.7895M11.8758 47.7895C11.7273 48.3435 11.8274 48.9027 12.1504 49.3236C12.4664 49.7353 12.9638 49.9716 13.5149 49.9716H17.3999L14.9034 40.1122C14.4042 39.9787 13.8893 40.2749 13.7552 40.7752L11.8758 47.7895ZM17.4491 50.0216C17.4402 50.9418 17.7068 51.8028 18.2324 52.4878C18.9705 53.4498 20.1164 53.9795 21.459 53.9795C23.8719 53.9795 26.2672 52.2677 27.2106 49.9716L17.4491 50.0216ZM19.4788 49.2896L19.4305 49.2767L19.4788 49.2896C19.7161 48.4038 20.3074 47.5841 21.0617 46.9858C21.8161 46.3873 22.7293 46.0135 23.6069 46.0135C24.3413 46.0135 24.9426 46.2781 25.3064 46.752C25.6978 47.2624 25.8011 47.9802 25.5871 48.7785C25.3497 49.6643 24.7584 50.4839 24.0042 51.0823C23.2498 51.6807 22.3366 52.0545 21.459 52.0545C20.7246 52.0545 20.1233 51.7899 19.7595 51.316C19.3679 50.8058 19.2648 50.088 19.4788 49.2896ZM50.5409 49.2896L50.4926 49.2767L50.5409 49.2896C50.7782 48.4038 51.3696 47.5841 52.1238 46.9858C52.8782 46.3873 53.7914 46.0135 54.6691 46.0135C55.4035 46.0135 56.0048 46.2781 56.3685 46.752C56.76 47.2624 56.8633 47.9802 56.6493 48.7785C56.4119 49.6643 55.8206 50.4839 55.0663 51.0823C54.312 51.6807 53.3988 52.0545 52.5211 52.0545C51.7868 52.0545 51.1854 51.7899 50.8217 51.316C50.4301 50.8058 50.3269 50.088 50.5409 49.2896ZM58.073 29.9815L58.0972 35.0205H52.0754C51.9199 35.0205 51.7265 34.9865 51.6174 34.8444C51.5214 34.7193 51.4954 34.5088 51.5623 34.2596L52.3677 31.2536C52.4578 30.9172 52.6884 30.5985 52.9818 30.3636C53.2754 30.1286 53.6268 29.9815 53.9547 29.9815H58.073ZM61.9031 39.2337L61.9305 39.1953L61.9031 39.2337C62.0195 39.3169 62.0623 39.4478 62.0705 39.5797C62.0786 39.7115 62.0513 39.836 62.036 39.8932L61.9991 40.0307H60.7529C60.2075 40.0307 59.7654 40.4728 59.7654 41.0182C59.7654 41.5635 60.2075 42.0056 60.7529 42.0056H61.47L60.1922 46.7745C60.1053 47.0989 59.8878 47.4065 59.6091 47.6384C59.346 47.8574 59.0321 48.0056 58.729 48.0382C58.7362 47.1114 58.4666 46.2424 57.9352 45.5499C57.1865 44.5743 56.0252 44.0386 54.669 44.0386C52.2449 44.0386 49.8431 45.749 48.8839 48.0467H43.8599L45.4786 42.0056H56.7448C57.2902 42.0056 57.7323 41.5635 57.7323 41.0182C57.7323 40.4728 57.2902 40.0307 56.7448 40.0307H46.0077L49.7743 25.9736H57.5059C57.638 25.9736 57.7756 25.9967 57.8791 26.0681C57.9794 26.1372 58.0552 26.2567 58.0562 26.4676L58.0636 28.0067H53.9546C52.404 28.0067 50.8709 29.2082 50.4597 30.7426L49.6544 33.7485C49.43 34.5859 49.5727 35.4242 50.0505 36.0468C50.514 36.6509 51.2529 36.9956 52.0752 36.9956H58.7726L61.9031 39.2337Z" fill="#216079" stroke="#216079" stroke-width="0.1"/>
<path d="M23.9841 39.9516C32.2362 39.9516 38.9497 33.2382 38.9497 24.986C38.9497 16.7339 32.2362 10.0204 23.9841 10.0204C15.7321 10.0204 9.01855 16.734 9.01855 24.986C9.01855 33.238 15.7321 39.9516 23.9841 39.9516V39.9516ZM23.9841 11.8954C31.2023 11.8954 37.0747 17.7679 37.0747 24.986C37.0747 32.2042 31.2024 38.0766 23.9841 38.0766C16.7658 38.0766 10.8935 32.2042 10.8935 24.986C10.8935 17.7679 16.766 11.8954 23.9841 11.8954V11.8954Z" fill="#F37800"/>
<path d="M19.9757 29.9314C20.2155 29.9314 20.4555 29.8399 20.6385 29.6568L22.6758 27.6196C23.07 27.8162 23.514 27.9274 23.9836 27.9274C25.6056 27.9274 26.9251 26.6078 26.9251 24.986C26.9251 24.5164 26.8138 24.0724 26.6172 23.6781L31.6605 18.6349C32.0267 18.2688 32.0267 17.6752 31.6605 17.3092C31.2944 16.9429 30.7008 16.9431 30.3348 17.3092L25.2915 22.3524C24.8972 22.1558 24.4532 22.0446 23.9836 22.0446C22.3616 22.0446 21.0422 23.3642 21.0422 24.9861C21.0422 25.4557 21.1534 25.8997 21.3499 26.294L19.3127 28.3312C18.9466 28.6973 18.9466 29.2909 19.3127 29.6569C19.4958 29.8399 19.7357 29.9314 19.9757 29.9314ZM23.9836 23.9195C24.5717 23.9195 25.0501 24.398 25.0501 24.986C25.0501 25.574 24.5716 26.0525 23.9836 26.0525C23.3956 26.0525 22.9171 25.574 22.9171 24.986C22.9171 24.398 23.3956 23.9195 23.9836 23.9195Z" fill="#F37800"/>
<path d="M23.9834 16.9553C24.5288 16.9553 24.9709 16.5132 24.9709 15.9678V14.9658C24.9709 14.4205 24.5288 13.9783 23.9834 13.9783C23.438 13.9783 22.9959 14.4205 22.9959 14.9658V15.9678C22.9959 16.5133 23.438 16.9553 23.9834 16.9553Z" fill="#216079" stroke="#216079" stroke-width="0.1"/>
<path d="M23.9834 33.0165C23.438 33.0165 22.9959 33.4587 22.9959 34.004V35.006C22.9959 35.5514 23.438 35.9935 23.9834 35.9935C24.5288 35.9935 24.9709 35.5514 24.9709 35.006V34.004C24.9709 33.4587 24.5288 33.0165 23.9834 33.0165Z" fill="#216079" stroke="#216079" stroke-width="0.1"/>
<path d="M33.002 25.9735H34.004C34.5493 25.9735 34.9915 25.5313 34.9915 24.986C34.9915 24.4406 34.5493 23.9985 34.004 23.9985H33.002C32.4566 23.9985 32.0145 24.4406 32.0145 24.986C32.0145 25.5313 32.4566 25.9735 33.002 25.9735Z" fill="#216079" stroke="#216079" stroke-width="0.1"/>
<path d="M15.9524 24.986C15.9524 24.4406 15.5103 23.9985 14.9649 23.9985H13.9629C13.4175 23.9985 12.9754 24.4406 12.9754 24.986C12.9754 25.5313 13.4175 25.9735 13.9629 25.9735H14.9649C15.5103 25.9735 15.9524 25.5313 15.9524 24.986Z" fill="#216079" stroke="#216079" stroke-width="0.1"/>
<path d="M10.9575 37.0745H0.937489C0.419745 37.0745 0 37.4942 0 38.012C0 38.5297 0.419745 38.9495 0.937489 38.9495H10.9575C11.4752 38.9495 11.895 38.5297 11.895 38.012C11.895 37.4942 11.4752 37.0745 10.9575 37.0745Z" fill="#F37800"/>
<path d="M9.95548 41.0825H3.94336C3.42561 41.0825 3.00586 41.5023 3.00586 42.02C3.00586 42.5378 3.42561 42.9575 3.94336 42.9575H9.95548C10.4732 42.9575 10.893 42.5378 10.893 42.02C10.893 41.5023 10.4732 41.0825 9.95548 41.0825Z" fill="#F37800"/>
<path d="M8.95322 45.0905H6.94922C6.43147 45.0905 6.01172 45.5102 6.01172 46.028C6.01172 46.5457 6.43147 46.9655 6.94922 46.9655H8.95322C9.47097 46.9655 9.89072 46.5457 9.89072 46.028C9.89072 45.5102 9.47097 45.0905 8.95322 45.0905Z" fill="#F37800"/>
</g>
<defs>
<clipPath id="clip0_502_15582">
<rect width="64" height="64" fill="white"/>
</clipPath>
</defs>
</svg>
