<svg width="50" height="50" viewBox="0 0 50 50" fill="none" xmlns="http://www.w3.org/2000/svg">
<path d="M32.2639 8.69644C32.4942 7.92114 32.0507 7.10571 31.2754 6.87544C27.1698 5.65952 22.8297 5.65952 18.7241 6.87544C17.9488 7.10571 17.5054 7.92114 17.7357 8.69644C17.9659 9.47173 18.7785 9.91812 19.5567 9.68491C23.1187 8.62915 26.8809 8.62915 30.4429 9.68491C31.2081 9.91362 32.0321 9.47778 32.2639 8.69644Z" fill="#F37800"/>
<path d="M21.7796 12.1454C20.9871 12.3056 20.4735 13.0795 20.6338 13.872C20.7954 14.666 21.5622 15.1867 22.3604 15.0178C24.1114 14.663 25.8881 14.663 27.639 15.0178C28.4162 15.1755 29.2015 14.6783 29.3657 13.872C29.526 13.0796 29.0124 12.3056 28.2199 12.1454C26.0826 11.7133 23.9168 11.7133 21.7796 12.1454Z" fill="#F37800"/>
<path d="M45.6055 20.6055H44.043V19.1406C44.043 8.64062 35.5 0 25 0C14.5 0 5.95703 8.64062 5.95703 19.1406V20.6055H4.39453C1.97129 20.6055 0 22.5768 0 25V33.7891C0 36.2123 1.97129 38.2812 4.39453 38.2812H10.3516C11.1612 38.2812 11.8164 37.6261 11.8164 36.8164V22.0703C11.8164 21.2606 11.1612 20.6055 10.3516 20.6055H8.88672V19.1406C8.88672 10.2558 16.1151 2.92969 25 2.92969C33.8849 2.92969 41.1133 10.2558 41.1133 19.1406V20.6055H39.6484C38.8388 20.6055 38.1836 21.2606 38.1836 22.0703V36.8164C38.1836 37.6261 38.8388 38.2812 39.6484 38.2812H41.1133V39.7461C41.1133 42.1693 39.142 44.1406 36.7188 44.1406H29.1247C28.518 42.4393 26.9072 41.2109 25 41.2109C22.5768 41.2109 20.6055 43.1822 20.6055 45.6055C20.6055 48.0287 22.5768 50 25 50C26.9072 50 28.518 48.7717 29.1247 47.0703H36.7188C40.7571 47.0703 44.043 43.7845 44.043 39.7461V38.2812H45.6055C48.0287 38.2812 50 36.2123 50 33.7891V25C50 22.5768 48.0287 20.6055 45.6055 20.6055Z" fill="#216079"/>
<path d="M35.2539 27.9297C35.2539 22.2763 30.6534 17.6758 25 17.6758C19.3466 17.6758 14.7461 22.2763 14.7461 27.9297C14.7461 33.5831 19.3466 38.2812 25 38.2812C30.6534 38.2812 35.2539 33.5831 35.2539 27.9297ZM22.4995 31.1626L20.3022 28.9653C19.7301 28.3932 19.7301 27.4661 20.3022 26.8939C20.8744 26.3218 21.8015 26.3218 22.3736 26.8939L23.5352 28.0556L26.894 24.6967C27.4662 24.1245 28.3933 24.1245 28.9654 24.6967C29.5376 25.2688 29.5376 26.1959 28.9654 26.7681L24.5709 31.1626C23.9986 31.7349 23.0717 31.7349 22.4995 31.1626Z" fill="#F37800"/>
</svg>
