<svg width="44" height="43" viewBox="0 0 44 43" fill="none" xmlns="http://www.w3.org/2000/svg">
<g clip-path="url(#clip0_500_28710)">
<path d="M40.9123 13.6717C41.1323 13.5924 41.3119 13.4302 41.4103 13.2199C41.5088 13.0095 41.5174 12.7691 41.434 12.5523C38.5081 4.92824 31.0611 -0.127927 22.7337 -0.149999V-0.15H22.7333C22.2488 -0.15 21.85 0.234788 21.85 0.716667V19.35C21.85 19.8313 22.2479 20.2158 22.7317 20.2167M40.9123 13.6717C40.9123 13.6717 40.9123 13.6718 40.9122 13.6718L40.8613 13.5307L40.9125 13.6717C40.9125 13.6717 40.9124 13.6717 40.9123 13.6717ZM40.9123 13.6717C35.6941 15.5667 31.9892 16.9142 29.3563 17.8718C27.17 18.667 25.7227 19.1933 24.7616 19.5412C23.7035 19.9242 23.2321 20.0919 23.0126 20.1636C22.9076 20.1979 22.8467 20.215 22.8033 20.2196C22.7735 20.2227 22.752 20.2201 22.7356 20.2173C22.7337 20.217 22.7325 20.2168 22.7317 20.2167M22.7317 20.2167C22.7323 20.2167 22.7328 20.2167 22.7333 20.2167C22.7335 20.2167 22.7331 20.2167 22.7325 20.2166L22.7305 20.2164C22.7305 20.2164 22.7296 20.2163 22.7317 20.2167ZM23.6167 18.104V1.59046C30.5618 1.94219 36.6997 6.11701 39.45 12.3548L23.6167 18.104Z" fill="#F37800" stroke="#F37800" stroke-width="0.3"/>
<mask id="path-2-outside-1_500_28710" maskUnits="userSpaceOnUse" x="-1.0127" y="3.30005" width="46" height="41" fill="black">
<rect fill="white" x="-1.0127" y="3.30005" width="46" height="41"/>
<path d="M39.5996 23.6501C39.6073 21.341 39.19 19.0494 38.3676 16.8848C38.296 16.7043 38.1527 16.5599 37.9703 16.4843C37.788 16.4087 37.5822 16.4084 37.3996 16.4834L20.5329 22.6181V5.01672C20.5329 4.62092 20.2046 4.30005 19.7996 4.30005C11.7818 4.29543 4.55254 9.01675 1.48961 16.2581C-1.57333 23.4994 0.134728 31.8312 5.81572 37.3605C11.4967 42.8898 20.0291 44.5251 27.4263 41.5023C32.4486 44.3235 38.8492 42.8546 42.0616 38.1436C45.274 33.4325 44.1973 27.0941 39.5996 23.6501V23.6501ZM19.0663 5.73339V22.7471L2.14825 18.8556C4.24599 11.3376 11.098 6.02288 19.0663 5.73339ZM1.80358 20.2531L18.8463 24.1661L13.1996 40.3342C4.93415 37.2117 0.137063 28.7587 1.80358 20.2531ZM14.5563 40.8L20.3789 24.2019L37.2456 18.0816C37.7545 19.5858 38.053 21.1504 38.1329 22.7328C33.1469 20.157 26.9752 21.6839 23.8438 26.2679C20.7123 30.8518 21.6357 37.0077 25.9816 40.5205C22.3028 41.8111 18.2965 41.9091 14.5563 40.8V40.8ZM32.9996 41.5668C27.7345 41.5668 23.4663 37.3956 23.4663 32.2501C23.4663 27.1047 27.7345 22.9334 32.9996 22.9334C38.2647 22.9334 42.5329 27.1047 42.5329 32.2501C42.5329 34.7211 41.5285 37.0908 39.7407 38.838C37.9528 40.5852 35.528 41.5668 32.9996 41.5668V41.5668Z"/>
</mask>
<path d="M39.5996 23.6501C39.6073 21.341 39.19 19.0494 38.3676 16.8848C38.296 16.7043 38.1527 16.5599 37.9703 16.4843C37.788 16.4087 37.5822 16.4084 37.3996 16.4834L20.5329 22.6181V5.01672C20.5329 4.62092 20.2046 4.30005 19.7996 4.30005C11.7818 4.29543 4.55254 9.01675 1.48961 16.2581C-1.57333 23.4994 0.134728 31.8312 5.81572 37.3605C11.4967 42.8898 20.0291 44.5251 27.4263 41.5023C32.4486 44.3235 38.8492 42.8546 42.0616 38.1436C45.274 33.4325 44.1973 27.0941 39.5996 23.6501V23.6501ZM19.0663 5.73339V22.7471L2.14825 18.8556C4.24599 11.3376 11.098 6.02288 19.0663 5.73339ZM1.80358 20.2531L18.8463 24.1661L13.1996 40.3342C4.93415 37.2117 0.137063 28.7587 1.80358 20.2531ZM14.5563 40.8L20.3789 24.2019L37.2456 18.0816C37.7545 19.5858 38.053 21.1504 38.1329 22.7328C33.1469 20.157 26.9752 21.6839 23.8438 26.2679C20.7123 30.8518 21.6357 37.0077 25.9816 40.5205C22.3028 41.8111 18.2965 41.9091 14.5563 40.8V40.8ZM32.9996 41.5668C27.7345 41.5668 23.4663 37.3956 23.4663 32.2501C23.4663 27.1047 27.7345 22.9334 32.9996 22.9334C38.2647 22.9334 42.5329 27.1047 42.5329 32.2501C42.5329 34.7211 41.5285 37.0908 39.7407 38.838C37.9528 40.5852 35.528 41.5668 32.9996 41.5668V41.5668Z" fill="#216079"/>
<path d="M38.3676 16.8848L38.6481 16.7782L38.6464 16.774L38.3676 16.8848ZM37.9703 16.4843L38.0852 16.2071L37.9703 16.4843ZM37.3996 16.4834L37.5022 16.7656L37.5137 16.7609L37.3996 16.4834ZM20.5329 22.6181H20.2329V23.0464L20.6355 22.9L20.5329 22.6181ZM19.7996 4.30005L19.7994 4.60005H19.7996V4.30005ZM27.4263 41.5023L27.5732 41.2408L27.4469 41.1698L27.3128 41.2246L27.4263 41.5023ZM19.0663 5.73339H19.3663V5.42229L19.0554 5.43359L19.0663 5.73339ZM19.0663 22.7471L18.999 23.0395L19.3663 23.1239V22.7471H19.0663ZM2.14825 18.8556L1.85928 18.775L1.77486 19.0775L2.08099 19.148L2.14825 18.8556ZM1.80358 20.2531L1.87071 19.9607L1.56875 19.8914L1.50918 20.1954L1.80358 20.2531ZM18.8463 24.1661L19.1295 24.265L19.24 23.9487L18.9134 23.8737L18.8463 24.1661ZM13.1996 40.3342L13.0936 40.6148L13.3814 40.7235L13.4828 40.4331L13.1996 40.3342ZM20.3789 24.2019L20.2766 23.9199L20.1429 23.9684L20.0958 24.1026L20.3789 24.2019ZM37.2456 18.0816L37.5298 17.9855L37.4315 17.695L37.1433 17.7996L37.2456 18.0816ZM38.1329 22.7328L37.9953 22.9993L38.4589 23.2388L38.4326 22.7176L38.1329 22.7328ZM25.9816 40.5205L26.0809 40.8036L26.5887 40.6254L26.1702 40.2872L25.9816 40.5205ZM39.7407 38.838L39.9504 39.0526L39.7407 38.838ZM39.8996 23.6511C39.9074 21.3052 39.4835 18.9772 38.648 16.7782L38.0872 16.9913C38.8965 19.1217 39.3072 21.3769 39.2996 23.6491L39.8996 23.6511ZM38.6464 16.774C38.5443 16.5169 38.341 16.3132 38.0852 16.2071L37.8554 16.7614C37.9643 16.8065 38.0476 16.8918 38.0888 16.9955L38.6464 16.774ZM38.0852 16.2071C37.8296 16.1012 37.5415 16.1007 37.2855 16.2059L37.5137 16.7609C37.6229 16.716 37.7464 16.7162 37.8554 16.7614L38.0852 16.2071ZM37.2971 16.2015L20.4304 22.3362L20.6355 22.9L37.5021 16.7654L37.2971 16.2015ZM20.8329 22.6181V5.01672H20.2329V22.6181H20.8329ZM20.8329 5.01672C20.8329 4.44877 20.3637 4.00005 19.7996 4.00005V4.60005C20.0455 4.60005 20.2329 4.79306 20.2329 5.01672H20.8329ZM19.7998 4.00005C11.6645 3.99536 4.32442 8.78597 1.21331 16.1412L1.76591 16.375C4.78065 9.24754 11.8991 4.5955 19.7994 4.60005L19.7998 4.00005ZM1.21331 16.1412C-1.89832 23.4977 -0.162131 31.9609 5.60647 37.5755L6.02496 37.1455C0.431588 31.7015 -1.24833 23.5012 1.76591 16.375L1.21331 16.1412ZM5.60647 37.5755C11.3739 43.1889 20.0332 44.8475 27.5397 41.78L27.3128 41.2246C20.0249 44.2027 11.6195 42.5907 6.02496 37.1455L5.60647 37.5755ZM27.2793 41.7639C32.4352 44.66 39.0079 43.1543 42.3095 38.3126L41.8137 37.9746C38.6904 42.5549 32.4621 43.987 27.5732 41.2408L27.2793 41.7639ZM42.3095 38.3126C45.6134 33.4673 44.5041 26.949 39.7795 23.41L39.4198 23.8902C43.8906 27.2391 44.9346 33.3978 41.8137 37.9746L42.3095 38.3126ZM18.7663 5.73339V22.7471H19.3663V5.73339H18.7663ZM19.1335 22.4547L2.2155 18.5632L2.08099 19.148L18.999 23.0395L19.1335 22.4547ZM2.43721 18.9362C4.49882 11.5477 11.2355 6.31808 19.0772 6.03319L19.0554 5.43359C10.9605 5.72768 3.99316 11.1274 1.85928 18.775L2.43721 18.9362ZM1.73644 20.5455L18.7791 24.4585L18.9134 23.8737L1.87071 19.9607L1.73644 20.5455ZM18.563 24.0672L12.9164 40.2352L13.4828 40.4331L19.1295 24.265L18.563 24.0672ZM13.3056 40.0535C5.17309 36.9813 0.46042 28.6686 2.09798 20.3108L1.50918 20.1954C-0.186295 28.8488 4.69522 37.4421 13.0936 40.6148L13.3056 40.0535ZM14.8393 40.8993L20.662 24.3013L20.0958 24.1026L14.2732 40.7007L14.8393 40.8993ZM20.4813 24.4839L37.3479 18.3636L37.1433 17.7996L20.2766 23.9199L20.4813 24.4839ZM36.9614 18.1777C37.4615 19.6559 37.7547 21.1932 37.8333 22.7479L38.4326 22.7176C38.3512 21.1076 38.0475 19.5158 37.5298 17.9855L36.9614 18.1777ZM38.2706 22.4662C33.1522 19.8222 26.8144 21.3875 23.5961 26.0986L24.0915 26.4371C27.136 21.9803 33.1415 20.4919 37.9953 22.9993L38.2706 22.4662ZM23.5961 26.0986C20.3755 30.8131 21.3268 37.1438 25.793 40.7538L26.1702 40.2872C21.9446 36.8716 21.0492 30.8906 24.0915 26.4371L23.5961 26.0986ZM25.8823 40.2374C22.2631 41.5071 18.3213 41.6035 14.6415 40.5124L14.471 41.0876C18.2716 42.2146 22.3426 42.1151 26.0809 40.8036L25.8823 40.2374ZM32.9996 41.2668C27.8936 41.2668 23.7663 37.2234 23.7663 32.2501H23.1663C23.1663 37.5677 27.5753 41.8668 32.9996 41.8668V41.2668ZM23.7663 32.2501C23.7663 27.2768 27.8936 23.2334 32.9996 23.2334V22.6334C27.5753 22.6334 23.1663 26.9325 23.1663 32.2501H23.7663ZM32.9996 23.2334C38.1056 23.2334 42.2329 27.2768 42.2329 32.2501H42.8329C42.8329 26.9325 38.4239 22.6334 32.9996 22.6334V23.2334ZM42.2329 32.2501C42.2329 34.6393 41.2619 36.932 39.531 38.6235L39.9504 39.0526C41.7952 37.2497 42.8329 34.8029 42.8329 32.2501H42.2329ZM39.531 38.6235C37.7999 40.3152 35.4506 41.2668 32.9996 41.2668V41.8668C35.6054 41.8668 38.1058 40.8553 39.9504 39.0526L39.531 38.6235Z" fill="#216079" mask="url(#path-2-outside-1_500_28710)"/>
<path d="M28.5999 37.4168C28.8333 37.4179 29.0582 37.3283 29.225 37.1667L29.2254 37.1662L38.025 28.5667C38.025 28.5666 38.0251 28.5665 38.0252 28.5665C38.1926 28.404 38.2875 28.1823 38.2875 27.9501C38.2875 27.7181 38.1927 27.4964 38.0254 27.334C37.8593 27.1706 37.6341 27.0793 37.3999 27.0793C37.1656 27.0793 36.9403 27.1707 36.7742 27.3342C36.7741 27.3343 36.774 27.3344 36.774 27.3345L27.9749 35.9336C27.9748 35.9337 27.9747 35.9338 27.9746 35.9338C27.7192 36.1816 27.6416 36.5571 27.7803 36.8836C27.9187 37.2094 28.2434 37.4185 28.5999 37.4168ZM28.5999 37.4168C28.5996 37.4168 28.5994 37.4168 28.5991 37.4168L28.5999 37.2668L28.6008 37.4168C28.6005 37.4168 28.6002 37.4168 28.5999 37.4168Z" fill="#F37800" stroke="#F37800" stroke-width="0.3"/>
<path d="M31.6828 28.6667C31.6828 27.3932 30.6274 26.3667 29.3328 26.3667C28.0382 26.3667 26.9828 27.3932 26.9828 28.6667C26.9828 29.9402 28.0382 30.9667 29.3328 30.9667C30.6274 30.9667 31.6828 29.9402 31.6828 28.6667ZM28.7495 28.6667C28.7495 28.357 29.0074 28.1 29.3328 28.1C29.6582 28.1 29.9161 28.357 29.9161 28.6667C29.9161 28.9764 29.6582 29.2334 29.3328 29.2334C29.0074 29.2334 28.7495 28.9764 28.7495 28.6667Z" fill="#F37800" stroke="#F37800" stroke-width="0.3"/>
<path d="M36.6658 33.5334C35.3712 33.5334 34.3158 34.5599 34.3158 35.8334C34.3158 37.1069 35.3712 38.1334 36.6658 38.1334C37.9604 38.1334 39.0158 37.1069 39.0158 35.8334C39.0158 34.5599 37.9604 33.5334 36.6658 33.5334ZM36.6658 36.4001C36.3404 36.4001 36.0825 36.1431 36.0825 35.8334C36.0825 35.5237 36.3404 35.2667 36.6658 35.2667C36.9912 35.2667 37.2491 35.5237 37.2491 35.8334C37.2491 36.1431 36.9912 36.4001 36.6658 36.4001Z" fill="#F37800" stroke="#F37800" stroke-width="0.3"/>
</g>
<defs>
<clipPath id="clip0_500_28710">
<rect width="44" height="43" fill="white"/>
</clipPath>
</defs>
</svg>
