<svg width="61" height="61" viewBox="0 0 61 61" fill="none" xmlns="http://www.w3.org/2000/svg">
<path d="M41.6817 45.5163C41.1205 45.5163 40.665 45.1136 40.665 44.5504V44.4487C40.665 43.8875 41.1205 43.4321 41.6817 43.4321C42.2429 43.4321 42.6984 43.8875 42.6984 44.4487C42.6984 45.0099 42.2429 45.5163 41.6817 45.5163Z" fill="#216079"/>
<path d="M41.6821 52.8669H33.5488C32.9876 52.8669 32.5321 52.4114 32.5321 51.8502V48.5827C30.0331 48.8694 26.975 48.8836 24.3988 48.5562V51.8502C24.3988 52.4114 23.9433 52.8669 23.3821 52.8669H15.2488C14.6876 52.8669 14.2321 52.4114 14.2321 51.8502V44.8962C10.7978 42.5721 9.1264 39.8556 8.50216 38.6336H5.0821C4.5209 38.6336 4.06543 38.1781 4.06543 37.6169V29.4836C4.06543 28.9224 4.5209 28.4669 5.0821 28.4669H8.45743C8.90273 27.4746 9.94176 25.6019 12.0503 23.7313L10.2081 17.5764C10.1166 17.2673 10.1736 16.9338 10.3667 16.6776C10.5579 16.4194 10.8608 16.2669 11.1821 16.2669C13.923 16.2669 18.6729 17.7248 20.0881 20.362C20.3545 20.8561 20.1694 21.4722 19.6733 21.7386C19.1751 22.007 18.5631 21.8199 18.2967 21.3238C17.5769 19.9818 14.8909 18.7984 12.5851 18.4243L14.1894 23.7841C14.3073 24.1766 14.1772 24.6036 13.858 24.8638C10.9361 27.253 10.1288 29.7581 10.1207 29.7845C9.98853 30.2054 9.59406 30.5002 9.14876 30.5002H6.09876V36.6002H9.14876C9.5656 36.6002 9.94176 36.8585 10.0963 37.2468C10.1085 37.2814 11.5278 40.7747 15.7957 43.4892C16.0885 43.6762 16.2654 43.9995 16.2654 44.3472V50.8336H22.3654V47.3769C22.3654 47.078 22.4976 46.7913 22.7274 46.5981C22.9571 46.405 23.2621 46.3236 23.5549 46.3745C26.5826 46.8991 30.4906 46.8767 33.3861 46.4131C33.6809 46.3643 33.9798 46.4517 34.2055 46.6429C34.4353 46.836 34.5654 47.1187 34.5654 47.4176V50.8336H40.6654V44.5506C40.6654 44.2049 40.8403 43.8836 41.1311 43.6966C46.2164 40.4168 46.7654 35.5083 46.7654 33.5502C46.7654 31.6633 45.5414 26.0533 39.9578 22.7878C39.4739 22.5031 39.3112 21.8809 39.5939 21.397C39.8785 20.911 40.4967 20.7484 40.9847 21.033C47.3958 24.7825 48.7988 31.34 48.7988 33.5502C48.7988 35.7808 48.1928 41.2769 42.6988 45.0935V51.8502C42.6988 52.4114 42.2433 52.8669 41.6821 52.8669Z" fill="#216079"/>
<path d="M37.8203 26.1078C37.6658 26.1078 37.5092 26.0733 37.3608 25.998C35.2665 24.9387 32.617 24.3998 29.4816 24.3998C26.1815 24.3998 23.2739 24.8207 20.84 25.6503C20.3073 25.8333 19.7298 25.5466 19.5488 25.0159C19.3679 24.4832 19.6505 23.9057 20.1832 23.7248C22.8286 22.824 25.9579 22.3665 29.4816 22.3665C32.9383 22.3665 35.8988 22.9785 38.2819 24.1843C38.7821 24.4385 38.9834 25.0505 38.7292 25.5507C38.5483 25.9045 38.1924 26.1078 37.8203 26.1078Z" fill="#F37800"/>
<path d="M34.2604 24.8678C33.9452 24.8678 33.6321 24.7214 33.4348 24.4448C33.1075 23.9894 33.2112 23.355 33.6666 23.0256C35.5027 21.7039 36.5987 19.5567 36.5987 17.2834C36.5987 13.3591 33.4064 10.1668 29.482 10.1668C25.5577 10.1668 22.3654 13.3591 22.3654 17.2834C22.3654 19.5364 23.382 21.59 25.151 22.9158C25.6004 23.2533 25.6919 23.8897 25.3564 24.3391C25.0189 24.7885 24.3824 24.88 23.9331 24.5445C21.6456 22.8304 20.332 20.183 20.332 17.2834C20.332 12.2387 24.4373 8.13342 29.482 8.13342C34.5267 8.13342 38.632 12.2387 38.632 17.2834C38.632 20.2074 37.2189 22.9727 34.8541 24.6766C34.6731 24.8047 34.4657 24.8678 34.2604 24.8678Z" fill="#F37800"/>
<path d="M14.2326 32.5338C15.3555 32.5338 16.2659 31.6235 16.2659 30.5005C16.2659 29.3775 15.3555 28.4672 14.2326 28.4672C13.1096 28.4672 12.1992 29.3775 12.1992 30.5005C12.1992 31.6235 13.1096 32.5338 14.2326 32.5338Z" fill="#F37800"/>
<path d="M47.7813 34.567C47.2201 34.567 46.7646 34.1116 46.7646 33.5504C46.7646 32.9892 47.2201 32.5337 47.7813 32.5337C48.3588 32.5337 49.1071 32.2694 49.8533 31.8566C49.103 30.6793 48.798 29.3109 48.798 28.467C48.798 25.7688 49.8248 24.4004 51.848 24.4004C54.898 24.4004 54.898 27.2491 54.898 28.467C54.898 29.6952 54.1436 30.9335 53.0782 31.9684C53.7553 32.1474 54.5625 32.0254 55.4958 31.6065C56.0082 31.3686 56.6101 31.6045 56.8398 32.1148C57.0716 32.6252 56.8439 33.2291 56.3315 33.4589C53.9484 34.5325 52.3075 34.0201 51.3478 33.3999C51.3254 33.3857 51.3051 33.3714 51.2827 33.3572C50.0688 34.1014 48.7736 34.567 47.7813 34.567ZM51.848 26.4337C51.3722 26.4337 50.8313 26.4337 50.8313 28.467C50.8313 28.9693 51.0387 29.8904 51.5084 30.6712C52.2974 29.9514 52.8647 29.1421 52.8647 28.467C52.8647 26.513 52.5698 26.4337 51.848 26.4337Z" fill="#216079"/>
</svg>
