<svg width="19" height="19" viewBox="0 0 19 19" fill="none" xmlns="http://www.w3.org/2000/svg">
<g clip-path="url(#clip0_721_1114)">
<path d="M5.16263 0.043457H13.8365C16.6595 0.043457 18.9561 2.34005 18.9561 5.16304V13.837C18.9561 16.6599 16.6595 18.9565 13.8365 18.9565H5.16248C2.33964 18.9565 0.043047 16.6599 0.043047 13.837V5.16304C0.043047 2.34005 2.33964 0.043457 5.16263 0.043457V0.043457ZM9.49955 14.6713C12.3511 14.6713 14.6709 12.3515 14.6709 9.49996C14.6709 6.64841 12.3511 4.32858 9.49955 4.32858C6.648 4.32858 4.32817 6.64841 4.32817 9.49996C4.32817 12.3515 6.648 14.6713 9.49955 14.6713V14.6713ZM4.20451 5.54816C5.04719 5.54816 5.73259 4.86276 5.73259 4.02008C5.73259 3.1774 5.04719 2.49185 4.20451 2.49185C3.36183 2.49185 2.67628 3.1774 2.67628 4.02008C2.67628 4.86276 3.36183 5.54816 4.20451 5.54816Z" fill="#F37800"/>
<path d="M9.49988 5.43726C11.7399 5.43726 13.5625 7.2597 13.5625 9.49987C13.5625 11.7399 11.7399 13.5625 9.49988 13.5625C7.25971 13.5625 5.43727 11.7399 5.43727 9.49987C5.43727 7.2597 7.25971 5.43726 9.49988 5.43726V5.43726Z" fill="#F37800"/>
<path d="M4.20471 3.60083C4.43586 3.60083 4.62402 3.78899 4.62402 4.02015C4.62402 4.25131 4.43586 4.43947 4.20471 4.43947C3.9734 4.43947 3.78524 4.25146 3.78524 4.02015C3.78524 3.78885 3.9734 3.60083 4.20471 3.60083Z" fill="#F37800"/>
</g>
<defs>
<clipPath id="clip0_721_1114">
<rect width="18.913" height="18.913" fill="white" transform="matrix(-1 0 0 1 18.9561 0.043457)"/>
</clipPath>
</defs>
</svg>
