<svg width="20" height="19" viewBox="0 0 20 19" fill="none" xmlns="http://www.w3.org/2000/svg">
<g clip-path="url(#clip0_721_1124)">
<path d="M19.8261 3.63585C19.1228 3.94437 18.3734 4.14886 17.592 4.24816C18.3958 3.76824 19.0093 3.01408 19.2977 2.10507C18.5483 2.55189 17.7209 2.86751 16.8391 3.04363C16.1274 2.28593 15.1132 1.81665 14.0068 1.81665C11.8602 1.81665 10.132 3.55901 10.132 5.69501C10.132 6.00234 10.158 6.29786 10.2218 6.57919C6.99836 6.42198 4.14603 4.87702 2.22991 2.52353C1.89538 3.10392 1.69916 3.76824 1.69916 4.48339C1.69916 5.82622 2.39067 7.01656 3.42143 7.7057C2.79848 7.69388 2.18735 7.51302 1.66961 7.22815C1.66961 7.23997 1.66961 7.25533 1.66961 7.2707C1.66961 9.15491 3.01362 10.72 4.77608 11.0805C4.46046 11.1668 4.11648 11.2082 3.7595 11.2082C3.51127 11.2082 3.26067 11.194 3.02544 11.142C3.52781 12.6775 4.95339 13.8063 6.64847 13.843C5.32928 14.8749 3.6543 15.4967 1.84101 15.4967C1.52303 15.4967 1.21806 15.4825 0.913086 15.4435C2.63063 16.5511 4.66614 17.1835 6.86124 17.1835C13.9962 17.1835 17.897 11.2732 17.897 6.1501C17.897 5.9787 17.8911 5.81321 17.8828 5.64891C18.6523 5.10279 19.2989 4.42074 19.8261 3.63585Z" fill="#F37800"/>
</g>
<defs>
<clipPath id="clip0_721_1124">
<rect width="18.913" height="18.913" fill="white" transform="translate(0.913086 0.043457)"/>
</clipPath>
</defs>
</svg>
