<svg width="20" height="19" viewBox="0 0 20 19" fill="none" xmlns="http://www.w3.org/2000/svg">
<g clip-path="url(#clip0_721_1120)">
<path d="M18.2084 5.06806C18.0041 4.30846 17.4052 3.70967 16.6457 3.50513C15.2582 3.12549 9.70805 3.12549 9.70805 3.12549C9.70805 3.12549 4.15813 3.12549 2.77063 3.49074C2.02574 3.69506 1.41223 4.30856 1.20791 5.06806C0.842773 6.45546 0.842773 9.33274 0.842773 9.33274C0.842773 9.33274 0.842773 12.2245 1.20791 13.5974C1.41245 14.3569 2.01113 14.9557 2.77074 15.1602C4.17274 15.54 9.70826 15.54 9.70826 15.54C9.70826 15.54 15.2582 15.54 16.6457 15.1747C17.4053 14.9703 18.0041 14.3715 18.2086 13.612C18.5736 12.2245 18.5736 9.34735 18.5736 9.34735C18.5736 9.34735 18.5883 6.45546 18.2084 5.06806ZM7.94101 11.9909V6.67461L12.5562 9.33274L7.94101 11.9909Z" fill="#F37800"/>
</g>
<defs>
<clipPath id="clip0_721_1120">
<rect width="18.913" height="18.913" fill="white" transform="translate(0.260742 0.043457)"/>
</clipPath>
</defs>
</svg>
