<svg width="216" height="176" viewBox="0 0 216 176" fill="none" xmlns="http://www.w3.org/2000/svg">
<g opacity="0.1">
<path d="M145.115 190H70.2959C71.0153 190 71.5908 189.705 71.8786 188.966L96.4824 145.7H118.784L143.532 188.966C143.82 189.705 144.395 190 145.115 190Z" fill="#B6B6B6"/>
<path d="M143.806 64.4297L96.9055 146.145L72.3041 188.977C72.0164 189.561 71.297 190 70.7215 190H2.24052C0.801847 190 -0.0613679 188.392 0.65797 187.076L105.681 0.986728C106.401 -0.328909 108.271 -0.328909 108.99 0.986728L143.806 62.5293C144.238 63.1141 144.238 63.845 143.806 64.4297Z" fill="#676767"/>
<path d="M213.183 190H145.337C144.623 190 144.052 189.707 143.766 189.122L119.199 146.235L110.915 131.891C110.201 130.574 111.058 128.964 112.486 128.964H181.617C182.331 128.964 182.902 129.403 183.331 129.988L214.754 187.219C215.468 188.39 214.611 190 213.183 190Z" fill="#676767"/>
</g>
</svg>
