<svg width="50" height="50" viewBox="0 0 50 50" fill="none" xmlns="http://www.w3.org/2000/svg">
<g clip-path="url(#clip0_139_2284)">
<path d="M48.6329 22.038C48.4708 21.0222 47.516 20.3303 46.5002 20.4923C45.4845 20.6544 44.7925 21.6092 44.9546 22.625C44.9563 22.6361 44.9582 22.6471 44.9601 22.6581C46.8567 33.8229 39.3434 44.4112 28.1786 46.3078C17.0138 48.2044 6.42558 40.6911 4.52897 29.5263C2.63236 18.3615 10.1458 7.77326 21.3105 5.87665C28.1766 4.71031 35.1653 7.10868 39.8683 12.2453L31.6179 14.9942C30.6418 15.319 30.114 16.3734 30.4386 17.3494C30.4387 17.3496 30.4389 17.3499 30.439 17.3501C30.7637 18.3262 31.8181 18.854 32.7941 18.5294C32.7944 18.5293 32.7947 18.5291 32.7949 18.5291L43.9694 14.8043C44.7302 14.551 45.2434 13.8389 45.2433 13.0369V1.86245C45.2433 0.833831 44.4095 0 43.3809 0C42.3522 0 41.5184 0.833831 41.5184 1.86245V8.6658C31.9271 -0.456692 16.7565 -0.0766059 7.63404 9.51469C-1.48846 19.106 -1.10848 34.2766 8.48293 43.3992C18.0743 52.5217 33.2448 52.1417 42.3674 42.5503C47.5693 37.0809 49.8909 29.4806 48.6329 22.038Z" fill="#F37800"/>
</g>
<defs>
<clipPath id="clip0_139_2284">
<rect width="50" height="50" fill="white"/>
</clipPath>
</defs>
</svg>
